<svg width="26" height="26" viewBox="0 0 26 26" fill="none" xmlns="http://www.w3.org/2000/svg">
<path d="M4.33325 20.5833C4.33325 21.158 4.56152 21.7091 4.96785 22.1154C5.37418 22.5217 5.92528 22.75 6.49992 22.75C7.07455 22.75 7.62565 22.5217 8.03198 22.1154C8.43831 21.7091 8.66658 21.158 8.66658 20.5833C8.66658 20.0087 8.43831 19.4576 8.03198 19.0513C7.62565 18.6449 7.07455 18.4167 6.49992 18.4167C5.92528 18.4167 5.37418 18.6449 4.96785 19.0513C4.56152 19.4576 4.33325 20.0087 4.33325 20.5833Z" stroke="#1A1523" stroke-width="2" stroke-linecap="round" stroke-linejoin="round"/>
<path d="M16.25 20.5833C16.25 21.158 16.4783 21.7091 16.8846 22.1154C17.2909 22.5217 17.842 22.75 18.4167 22.75C18.9913 22.75 19.5424 22.5217 19.9487 22.1154C20.3551 21.7091 20.5833 21.158 20.5833 20.5833C20.5833 20.0087 20.3551 19.4576 19.9487 19.0513C19.5424 18.6449 18.9913 18.4167 18.4167 18.4167C17.842 18.4167 17.2909 18.6449 16.8846 19.0513C16.4783 19.4576 16.25 20.0087 16.25 20.5833Z" stroke="#1A1523" stroke-width="2" stroke-linecap="round" stroke-linejoin="round"/>
<path d="M18.4166 18.4167H6.49992V3.25H4.33325" stroke="#1A1523" stroke-width="2" stroke-linecap="round" stroke-linejoin="round"/>
<path d="M6.5 5.41667L21.6667 6.50001L20.5833 14.0833H6.5" stroke="#1A1523" stroke-width="2" stroke-linecap="round" stroke-linejoin="round"/>
</svg>
