<svg width="26" height="26" viewBox="0 0 26 26" fill="none" xmlns="http://www.w3.org/2000/svg">
  <path d="M13.0001 1C15.5574 1 17.6934 2.8 18.2134 5.20133C19.5789 4.8318 21.0353 5.01985 22.2622 5.72411C23.489 6.42837 24.3859 7.59116 24.7554 8.95667C25.125 10.3222 24.9369 11.7786 24.2327 13.0054C23.5284 14.2323 22.3656 15.1291 21.0001 15.4987V25H5.0001V15.4987C4.32396 15.3155 3.69053 15.001 3.13595 14.573C2.58137 14.1451 2.11652 13.6121 1.76793 13.0045C1.41934 12.3969 1.19384 11.7266 1.1043 11.0318C1.01476 10.3371 1.06295 9.63147 1.2461 8.95533C1.42925 8.2792 1.74378 7.64576 2.17173 7.09119C2.59969 6.53661 3.13268 6.07176 3.74028 5.72317C4.34789 5.37457 5.0182 5.14907 5.71296 5.05954C6.40771 4.97 7.1133 5.01818 7.78943 5.20133C8.04788 4.01142 8.70572 2.94577 9.65363 2.18148C10.6015 1.41718 11.7824 1.00026 13.0001 1Z" stroke="#1A1523" stroke-width="2" stroke-linecap="round" stroke-linejoin="round" />
</svg>