<svg width="108" height="25" viewBox="0 0 108 25" fill="none" xmlns="http://www.w3.org/2000/svg">
<rect y="-0.00012207" width="108" height="25" rx="4" fill="#E54D2E"/>
<path d="M24.054 8.70388C23.956 8.89988 23.9 9.12388 23.844 9.40388C23.536 10.8739 22.864 13.1279 21.744 14.5699C20.47 16.2079 18.804 17.5099 16.242 18.3079L15.29 17.2579C18.006 16.5859 19.574 15.3959 20.75 13.8979C21.744 12.6239 22.388 10.6779 22.584 9.33388C21.772 9.33388 16.228 9.33388 15.416 9.33388C14.856 9.33388 14.38 9.36188 14.03 9.37588V8.12988C14.408 8.18588 14.968 8.22788 15.43 8.22788C16.228 8.22788 21.814 8.22788 22.444 8.22788C22.654 8.22788 22.934 8.21388 23.2 8.15788L24.054 8.70388ZM35.114 9.44588C35.058 9.73988 35.058 10.0759 35.058 10.3979C35.086 11.6299 35.156 15.8859 35.184 17.9159C35.184 18.5179 34.736 18.8679 34.12 18.8679C33.574 18.8679 32.65 18.8259 32.104 18.7979L32.034 17.7619C32.608 17.8459 33.336 17.9019 33.742 17.9019C34.008 17.9019 34.134 17.7479 34.134 17.4819C34.134 15.8299 34.064 11.6299 34.008 10.3979C34.008 10.1179 33.98 9.75388 33.924 9.44588H35.114ZM28.8 11.4619C29.136 11.5179 29.514 11.5319 29.85 11.5319C30.438 11.5319 36.514 11.5319 37.088 11.5319C37.382 11.5319 37.83 11.5039 38.026 11.4619V12.5679C37.788 12.5539 37.396 12.5399 37.13 12.5399C36.626 12.5399 30.368 12.5399 29.864 12.5399C29.5 12.5399 29.136 12.5539 28.8 12.5819V11.4619ZM28.436 16.8239C30.69 15.7459 32.986 13.6879 33.798 12.2179L34.372 12.2319L34.386 13.0719C33.644 14.4439 31.348 16.5579 29.206 17.6779L28.436 16.8239ZM42.044 8.40988C42.59 8.43788 42.954 8.43788 43.29 8.43788C44.032 8.43788 50.122 8.43788 50.808 8.43788C51.102 8.43788 51.606 8.43788 52.04 8.42388C52.012 8.75988 52.012 9.15188 52.012 9.50188C52.012 10.1599 52.012 15.8719 52.012 16.4039C52.012 16.8519 52.026 17.9439 52.04 18.0979H50.822C50.836 17.9439 50.85 17.1459 50.85 16.5579C50.85 16.0399 50.85 9.54388 50.85 9.54388H43.206C43.206 9.54388 43.206 15.9839 43.206 16.5579C43.206 17.0199 43.22 17.9159 43.22 18.0979H42.03C42.03 17.9159 42.058 16.8939 42.058 16.4039C42.058 15.8299 42.058 10.0479 42.058 9.50188C42.058 9.17988 42.058 8.75988 42.044 8.40988ZM51.312 16.2079V17.2999H42.646V16.2079H51.312ZM55.414 11.9379C55.848 11.9799 56.576 12.0219 57.374 12.0219C58.396 12.0219 64.01 12.0219 65.046 12.0219C65.746 12.0219 66.236 11.9659 66.558 11.9379V13.3099C66.264 13.2959 65.676 13.2539 65.06 13.2539C63.996 13.2539 58.41 13.2539 57.374 13.2539C56.604 13.2539 55.862 13.2819 55.414 13.3099V11.9379ZM76.778 6.91188C76.75 7.07988 76.708 7.62588 76.708 7.79388C76.666 8.70388 76.694 11.4059 76.708 12.5259L75.644 11.9799C75.644 11.3639 75.63 8.57788 75.588 7.80788C75.56 7.42988 75.518 7.03788 75.49 6.91188H76.778ZM69.33 8.87188C71.234 8.84388 74.734 8.71788 76.89 8.71788C78.598 8.71788 80.334 8.71788 80.992 8.73188L80.978 9.76788C80.194 9.72588 78.934 9.69788 76.876 9.69788C74.468 9.69788 71.472 9.79588 69.358 9.94988L69.33 8.87188ZM76.68 12.9319C76.68 14.8079 75.812 15.7459 74.538 15.7459C73.362 15.7459 72.228 14.9199 72.228 13.3939C72.228 12.0079 73.376 10.9719 74.706 10.9719C76.33 10.9719 77.156 12.1759 77.156 13.7859C77.156 15.6899 76.232 17.7899 72.984 18.7559L72.046 17.8459C74.594 17.2439 76.078 15.9979 76.078 13.6879C76.078 12.4279 75.462 11.8959 74.706 11.8959C73.964 11.8959 73.278 12.4699 73.278 13.3799C73.278 14.2619 73.936 14.7659 74.706 14.7659C75.574 14.7659 76.134 14.0379 75.91 12.5399L76.68 12.9319ZM85.332 7.69588C85.64 7.72388 86.032 7.73788 86.312 7.73788C87.054 7.73788 90.372 7.63988 91.114 7.56988C91.534 7.52788 91.73 7.49988 91.884 7.44388L92.528 8.26988C92.276 8.43788 91.996 8.61988 91.73 8.82988C91.044 9.36188 89.14 10.9999 88.048 11.8959C88.692 11.6859 89.364 11.6159 89.994 11.6159C92.318 11.6159 93.984 13.0019 93.984 14.8919C93.984 17.1459 92.122 18.6159 89.154 18.6159C87.25 18.6159 86.088 17.7899 86.088 16.6139C86.088 15.6619 86.956 14.7939 88.244 14.7939C90.106 14.7939 91.044 16.1099 91.142 17.5239L90.134 17.6919C90.05 16.5019 89.364 15.6479 88.244 15.6479C87.6 15.6479 87.11 16.0399 87.11 16.5299C87.11 17.2159 87.88 17.6219 88.986 17.6219C91.366 17.6219 92.864 16.6419 92.864 14.8919C92.864 13.5059 91.548 12.4839 89.714 12.4839C87.39 12.4839 86.13 13.4639 84.366 15.2699L83.554 14.4579C84.716 13.5059 86.522 11.9939 87.32 11.3079C88.104 10.6639 89.868 9.19388 90.568 8.56388C89.826 8.60588 87.026 8.71788 86.298 8.75988C85.976 8.78788 85.668 8.80188 85.36 8.84388L85.332 7.69588Z" fill="white"/>
</svg>
