<svg width="26" height="27" viewBox="0 0 26 27" fill="none" xmlns="http://www.w3.org/2000/svg">
  <path d="M21.1249 14.1197L12.9999 22.1667L4.87492 14.1197C4.339 13.5982 3.91687 12.9714 3.6351 12.2787C3.35333 11.586 3.21803 10.8425 3.23772 10.095C3.25741 9.3475 3.43166 8.61216 3.74951 7.93529C4.06735 7.25842 4.5219 6.6547 5.08453 6.16214C5.64716 5.66957 6.30568 5.29884 7.01863 5.07328C7.73158 4.84772 8.48351 4.77222 9.22707 4.85154C9.97063 4.93086 10.6897 5.16328 11.339 5.53416C11.9884 5.90504 12.5539 6.40634 12.9999 7.00651C13.4479 6.4107 14.0141 5.91377 14.6629 5.54683C15.3118 5.17989 16.0295 4.95083 16.7709 4.87399C17.5124 4.79715 18.2618 4.87418 18.9721 5.10027C19.6824 5.32635 20.3384 5.69662 20.8991 6.1879C21.4598 6.67918 21.913 7.2809 22.2304 7.95539C22.5478 8.62988 22.7226 9.36263 22.7438 10.1078C22.765 10.8529 22.6321 11.5944 22.3536 12.2859C22.075 12.9773 21.6567 13.6038 21.1249 14.1262" stroke="#E54D2E" stroke-width="2" stroke-linecap="round" stroke-linejoin="round" />
</svg>